<svg xmlns="http://www.w3.org/2000/svg" version="1.1" xmlns:xlink="http://www.w3.org/1999/xlink" xmlns:svgjs="http://svgjs.com/svgjs" width="1440" height="900" preserveAspectRatio="none" viewBox="0 0 1440 900"><g mask="url(&quot;#SvgjsMask1018&quot;)" fill="none"><rect width="1440" height="900" x="0" y="0" fill="rgba(203, 203, 203, 1)"></rect><path d="M66 900L966 0L1675.5 0L775.5 900z" fill="url(#SvgjsLinearGradient1019)"></path><path d="M509.20000000000005 900L1409.2 0L1622.2 0L722.2 900z" fill="url(#SvgjsLinearGradient1019)"></path><path d="M1425 900L525 0L52.5 0L952.5 900z" fill="url(#SvgjsLinearGradient1020)"></path><path d="M895.8 900L-4.2000000000000455 0L-469.20000000000005 0L430.79999999999995 900z" fill="url(#SvgjsLinearGradient1020)"></path><path d="M926.5872142658901 900L1440 386.5872142658901L1440 900z" fill="url(#SvgjsLinearGradient1019)"></path><path d="M0 900L513.4127857341099 900L 0 386.5872142658901z" fill="url(#SvgjsLinearGradient1020)"></path></g><defs><mask id="SvgjsMask1018"><rect width="1440" height="900" fill="#ffffff"></rect></mask><linearGradient x1="0%" y1="100%" x2="100%" y2="0%" id="SvgjsLinearGradient1019"><stop stop-color="rgba(203, 200, 17, 0.2)" offset="0"></stop><stop stop-opacity="0" stop-color="rgba(203, 200, 17, 0.2)" offset="0.66"></stop></linearGradient><linearGradient x1="100%" y1="100%" x2="0%" y2="0%" id="SvgjsLinearGradient1020"><stop stop-color="rgba(203, 200, 17, 0.2)" offset="0"></stop><stop stop-opacity="0" stop-color="rgba(203, 200, 17, 0.2)" offset="0.66"></stop></linearGradient></defs></svg>